REM DIRINDEX 1\2,1\3,1\4
REM DIRNAME cjc038,folder01,folder02,folder03
TITLE ""
FILE "DISC1Track12.mp3" MP3
  TRACK 01 AUDIO
    TITLE "0:"
    INDEX 01 00:00:00
  TRACK 02 AUDIO
    TITLE "4:cjc038_0228"
    INDEX 01 00:00:05
  TRACK 03 AUDIO
    TITLE "0:"
    INDEX 01 00:03:04
  TRACK 04 AUDIO
    TITLE "4:cjc038_0229"
    INDEX 01 00:03:25
  TRACK 05 AUDIO
    TITLE "0:"
    INDEX 01 00:06:00
  TRACK 06 AUDIO
    TITLE "2:cjc038_0230"
    INDEX 01 00:07:43
  TRACK 07 AUDIO
    TITLE "0:"
    INDEX 01 00:10:51
  TRACK 08 AUDIO
    TITLE "3:cjc038_0231"
    INDEX 01 00:10:68
  TRACK 09 AUDIO
    TITLE "0:"
    INDEX 01 00:14:00
  TRACK 10 AUDIO
    TITLE "2:cjc038_0232"
    INDEX 01 00:14:56
  TRACK 11 AUDIO
    TITLE "0:"
    INDEX 01 00:17:57
  TRACK 12 AUDIO
    TITLE "3:cjc038_0233"
    INDEX 01 00:17:63
  TRACK 13 AUDIO
    TITLE "0:"
    INDEX 01 00:20:57
  TRACK 14 AUDIO
    TITLE "2:cjc038_0234"
    INDEX 01 00:22:36
  TRACK 15 AUDIO
    TITLE "0:"
    INDEX 01 00:24:51
  TRACK 16 AUDIO
    TITLE "3:cjc038_0235"
    INDEX 01 00:24:59
  TRACK 17 AUDIO
    TITLE "0:"
    INDEX 01 00:26:67
  TRACK 18 AUDIO
    TITLE "2:cjc038_0236"
    INDEX 01 00:27:39
  TRACK 19 AUDIO
    TITLE "0:"
    INDEX 01 00:29:42
  TRACK 20 AUDIO
    TITLE "3:cjc038_0237"
    INDEX 01 00:29:44
  TRACK 21 AUDIO
    TITLE "0:"
    INDEX 01 00:31:39
  TRACK 22 AUDIO
    TITLE "2:cjc038_0238"
    INDEX 01 00:32:17
  TRACK 23 AUDIO
    TITLE "0:"
    INDEX 01 00:35:31
  TRACK 24 AUDIO
    TITLE "3:cjc038_0239"
    INDEX 01 00:35:39
  TRACK 25 AUDIO
    TITLE "0:"
    INDEX 01 00:38:39
  TRACK 26 AUDIO
    TITLE "2:cjc038_0240"
    INDEX 01 00:39:23
  TRACK 27 AUDIO
    TITLE "0:"
    INDEX 01 00:42:39
  TRACK 28 AUDIO
    TITLE "3:cjc038_0241"
    INDEX 01 00:42:51
  TRACK 29 AUDIO
    TITLE "0:"
    INDEX 01 00:45:51
  TRACK 30 AUDIO
    TITLE "2:cjc038_0242"
    INDEX 01 00:47:34
  TRACK 31 AUDIO
    TITLE "0:"
    INDEX 01 00:50:48
  TRACK 32 AUDIO
    TITLE "3:cjc038_0243"
    INDEX 01 00:50:60
  TRACK 33 AUDIO
    TITLE "0:"
    INDEX 01 00:53:70
  TRACK 34 AUDIO
    TITLE "2:cjc038_0244"
    INDEX 01 00:54:44
  TRACK 35 AUDIO
    TITLE "0:"
    INDEX 01 00:59:12
  TRACK 36 AUDIO
    TITLE "3:cjc038_0245"
    INDEX 01 00:59:18
  TRACK 37 AUDIO
    TITLE "0:"
    INDEX 01 01:03:57
  TRACK 38 AUDIO
    TITLE "2:cjc038_0246"
    INDEX 01 01:04:31
  TRACK 39 AUDIO
    TITLE "0:"
    INDEX 01 01:06:24
  TRACK 40 AUDIO
    TITLE "3:cjc038_0247"
    INDEX 01 01:06:34
  TRACK 41 AUDIO
    TITLE "0:"
    INDEX 01 01:08:21
  TRACK 42 AUDIO
    TITLE "2:cjc038_0248"
    INDEX 01 01:09:03
  TRACK 43 AUDIO
    TITLE "0:"
    INDEX 01 01:11:58
  TRACK 44 AUDIO
    TITLE "3:cjc038_0249"
    INDEX 01 01:11:66
  TRACK 45 AUDIO
    TITLE "0:"
    INDEX 01 01:14:43
  TRACK 46 AUDIO
    TITLE "2:cjc038_0250"
    INDEX 01 01:15:17
  TRACK 47 AUDIO
    TITLE "0:"
    INDEX 01 01:17:45
  TRACK 48 AUDIO
    TITLE "3:cjc038_0251"
    INDEX 01 01:17:59
  TRACK 49 AUDIO
    TITLE "0:"
    INDEX 01 01:20:00
  TRACK 50 AUDIO
    TITLE "2:cjc038_0252"
    INDEX 01 01:20:57
  TRACK 51 AUDIO
    TITLE "0:"
    INDEX 01 01:22:31
  TRACK 52 AUDIO
    TITLE "3:cjc038_0253"
    INDEX 01 01:22:42
  TRACK 53 AUDIO
    TITLE "0:"
    INDEX 01 01:24:04
  TRACK 54 AUDIO
    TITLE "2:cjc038_0254"
    INDEX 01 01:24:57
  TRACK 55 AUDIO
    TITLE "0:"
    INDEX 01 01:26:27
  TRACK 56 AUDIO
    TITLE "3:cjc038_0255"
    INDEX 01 01:26:36
  TRACK 57 AUDIO
    TITLE "0:"
    INDEX 01 01:27:73
  TRACK 58 AUDIO
    TITLE "2:cjc038_0256"
    INDEX 01 01:28:47
  TRACK 59 AUDIO
    TITLE "0:"
    INDEX 01 01:30:48
  TRACK 60 AUDIO
    TITLE "3:cjc038_0257"
    INDEX 01 01:30:60
  TRACK 61 AUDIO
    TITLE "0:"
    INDEX 01 01:32:43
  TRACK 62 AUDIO
    TITLE "2:cjc038_0258"
    INDEX 01 01:33:29
  TRACK 63 AUDIO
    TITLE "0:"
    INDEX 01 01:35:27
  TRACK 64 AUDIO
    TITLE "3:cjc038_0259"
    INDEX 01 01:35:37
  TRACK 65 AUDIO
    TITLE "0:"
    INDEX 01 01:37:24
  TRACK 66 AUDIO
    TITLE "2:cjc038_0260"
    INDEX 01 01:38:08
  TRACK 67 AUDIO
    TITLE "0:"
    INDEX 01 01:40:54
  TRACK 68 AUDIO
    TITLE "3:cjc038_0261"
    INDEX 01 01:40:60
  TRACK 69 AUDIO
    TITLE "0:"
    INDEX 01 01:43:25
  TRACK 70 AUDIO
    TITLE "2:cjc038_0262"
    INDEX 01 01:44:03
  TRACK 71 AUDIO
    TITLE "0:"
    INDEX 01 01:46:10
  TRACK 72 AUDIO
    TITLE "3:cjc038_0263"
    INDEX 01 01:46:18
  TRACK 73 AUDIO
    TITLE "0:"
    INDEX 01 01:48:18
  TRACK 74 AUDIO
    TITLE "2:cjc038_0264"
    INDEX 01 01:48:71
  TRACK 75 AUDIO
    TITLE "0:"
    INDEX 01 01:51:40
  TRACK 76 AUDIO
    TITLE "3:cjc038_0265"
    INDEX 01 01:51:46
  TRACK 77 AUDIO
    TITLE "0:"
    INDEX 01 01:54:03
  TRACK 78 AUDIO
    TITLE "2:cjc038_0266"
    INDEX 01 01:54:62
  TRACK 79 AUDIO
    TITLE "0:"
    INDEX 01 01:57:66
  TRACK 80 AUDIO
    TITLE "3:cjc038_0267"
    INDEX 01 01:58:03
  TRACK 81 AUDIO
    TITLE "0:"
    INDEX 01 02:00:71
  TRACK 82 AUDIO
    TITLE "2:cjc038_0268"
    INDEX 01 02:01:52
  TRACK 83 AUDIO
    TITLE "0:"
    INDEX 01 02:04:72
  TRACK 84 AUDIO
    TITLE "3:cjc038_0269"
    INDEX 01 02:05:09
  TRACK 85 AUDIO
    TITLE "0:"
    INDEX 01 02:08:15
  TRACK 86 AUDIO
    TITLE "2:cjc038_0270"
    INDEX 01 02:09:03
  TRACK 87 AUDIO
    TITLE "0:"
    INDEX 01 02:12:03
  TRACK 88 AUDIO
    TITLE "3:cjc038_0271"
    INDEX 01 02:12:13
  TRACK 89 AUDIO
    TITLE "0:"
    INDEX 01 02:15:09
  TRACK 90 AUDIO
    TITLE "2:cjc038_0272"
    INDEX 01 02:15:62
  TRACK 91 AUDIO
    TITLE "0:"
    INDEX 01 02:19:13
  TRACK 92 AUDIO
    TITLE "3:cjc038_0273"
    INDEX 01 02:19:21
  TRACK 93 AUDIO
    TITLE "0:"
    INDEX 01 02:22:37
  TRACK 94 AUDIO
    TITLE "2:cjc038_0274"
    INDEX 01 02:23:19
  TRACK 95 AUDIO
    TITLE "0:"
    INDEX 01 02:25:72
  TRACK 96 AUDIO
    TITLE "3:cjc038_0275"
    INDEX 01 02:26:05
  TRACK 97 AUDIO
    TITLE "0:"
    INDEX 01 02:28:39
  TRACK 98 AUDIO
    TITLE "2:cjc038_0276"
    INDEX 01 02:29:33
  TRACK 99 AUDIO
    TITLE "0:"
    INDEX 01 02:31:10
  TRACK 100 AUDIO
    TITLE "3:cjc038_0277"
    INDEX 01 02:31:22
  TRACK 101 AUDIO
    TITLE "0:"
    INDEX 01 02:32:63
  TRACK 102 AUDIO
    TITLE "2:cjc038_0278"
    INDEX 01 02:33:39
  TRACK 103 AUDIO
    TITLE "0:"
    INDEX 01 02:37:36
  TRACK 104 AUDIO
    TITLE "3:cjc038_0279"
    INDEX 01 02:37:42
  TRACK 105 AUDIO
    TITLE "0:"
    INDEX 01 02:41:36
  TRACK 106 AUDIO
    TITLE "2:cjc038_0280"
    INDEX 01 02:42:12
  TRACK 107 AUDIO
    TITLE "0:"
    INDEX 01 02:45:63
  TRACK 108 AUDIO
    TITLE "3:cjc038_0281"
    INDEX 01 02:45:73
  TRACK 109 AUDIO
    TITLE "0:"
    INDEX 01 02:49:44
  TRACK 110 AUDIO
    TITLE "2:cjc038_0282"
    INDEX 01 02:50:23
  TRACK 111 AUDIO
    TITLE "0:"
    INDEX 01 02:53:39
  TRACK 112 AUDIO
    TITLE "3:cjc038_0283"
    INDEX 01 02:53:49
  TRACK 113 AUDIO
    TITLE "0:"
    INDEX 01 02:56:51
  TRACK 114 AUDIO
    TITLE "2:cjc038_0284"
    INDEX 01 02:57:37
  TRACK 115 AUDIO
    TITLE "0:"
    INDEX 01 03:00:10
  TRACK 116 AUDIO
    TITLE "3:cjc038_0285"
    INDEX 01 03:00:18
  TRACK 117 AUDIO
    TITLE "0:"
    INDEX 01 03:02:48
  TRACK 118 AUDIO
    TITLE "2:cjc038_0286"
    INDEX 01 03:03:38
  TRACK 119 AUDIO
    TITLE "0:"
    INDEX 01 03:07:18
  TRACK 120 AUDIO
    TITLE "3:cjc038_0287"
    INDEX 01 03:07:30
  TRACK 121 AUDIO
    TITLE "0:"
    INDEX 01 03:11:00
